<svg preserveAspectRatio="none" overflow="visible" style="display: block;" width="29.1938" height="29.1785" viewBox="0 0 29.1938 29.1785" fill="none" xmlns="http://www.w3.org/2000/svg">
<g id="icon">
<path id="telegram" d="M1.9541 13.3172C10.8778 9.41427 22.4259 4.65581 24.0199 3.99721C28.2013 2.27341 29.4843 2.60377 28.8446 6.42126C28.3852 9.16509 27.0596 18.2493 26.003 23.9035C25.3761 27.2565 23.9695 27.654 21.7577 26.2033C20.6941 25.5052 15.3255 21.9757 14.1603 21.147C13.0967 20.3917 11.6298 19.4832 13.4695 17.6937C14.1241 17.0563 18.4156 12.9826 21.7591 9.81169C22.1972 9.39521 21.647 8.71119 21.1414 9.04508C16.6348 12.0162 10.3865 16.1401 9.59125 16.6772C8.38986 17.4883 7.23606 17.8603 5.16488 17.2688C3.59996 16.822 2.07125 16.289 1.47624 16.0857C-0.815046 15.3036 -0.271159 14.2906 1.9541 13.3172Z" fill="white"/>
</g>
</svg>
