<svg xmlns="http://www.w3.org/2000/svg" width="37" height="28.34" viewBox="0 0 37 28.34" fill="none"><g transform="translate(0,28.340) scale(1,-1)"><svg x="6.479" y="2.150" width="24.043" height="24.040" viewBox="0 0 24.0427 24.04" preserveAspectRatio="none" overflow="visible">
<g id="g1038">
<path id="path1040" d="M23.0427 12.0204C23.0427 5.93602 18.1111 1 12.0258 1C5.94048 1 1 5.93602 1 12.0204C1 18.1049 5.94048 23.04 12.0258 23.04C18.1111 23.04 23.0427 18.1049 23.0427 12.0204Z" stroke="#66A3FE" stroke-width="2" stroke-miterlimit="10" stroke-linejoin="round"/>
</g>
</svg></g><g transform="translate(0,28.340) scale(1,-1)"><svg x="10.152" y="5.826" width="16.696" height="16.688" viewBox="0 0 16.6956 16.6877" preserveAspectRatio="none" overflow="visible">
<g id="g1034">
<path id="path1036" d="M15.6956 8.3443C15.6956 4.29048 12.4016 1 8.3434 1C4.29397 1 1 4.29048 1 8.3443C1 12.406 4.29397 15.6877 8.3434 15.6877C12.4016 15.6877 15.6956 12.406 15.6956 8.3443Z" stroke="#66A3FE" stroke-width="2" stroke-miterlimit="10" stroke-linejoin="round"/>
</g>
</svg></g><g transform="translate(0,28.340) scale(1,-1)"><svg x="31.531" y="-0.998" width="5.938" height="30.337" viewBox="0 0 5.93824 30.3367" preserveAspectRatio="none" overflow="visible">
<g id="g1042">
<path id="path1044" d="M4.93824 1V29.3367C2.76114 29.3367 1 19.7017 1 17.53V13.5935H4.93824" stroke="#66A3FE" stroke-width="2" stroke-miterlimit="10" stroke-linecap="round" stroke-linejoin="round"/>
</g>
</svg></g><g transform="translate(0,8.340) scale(1,-1)"><svg x="-0.649" y="-0.766" width="8.297" height="9.872" viewBox="0 0 8.297 9.87166" preserveAspectRatio="none" overflow="visible">
<g id="g1050">
<path id="path1052" d="M7.29701 8.87166V4.1485C7.29701 2.40925 5.88513 1 4.14415 1C2.41183 1 1 2.40925 1 4.1485V8.87166" stroke="#66A3FE" stroke-width="2" stroke-miterlimit="10" stroke-linecap="round" stroke-linejoin="round"/>
</g>
</svg></g><g transform="translate(0,28.340) scale(1,-1)"><svg x="1.500" y="-0.999" width="2.000" height="30.337" viewBox="0 0 2 30.3373" preserveAspectRatio="none" overflow="visible">
<g id="g1046">
<path id="path1048" d="M1 1V29.3373" stroke="#66A3FE" stroke-width="2" stroke-miterlimit="10" stroke-linecap="round" stroke-linejoin="round"/>
</g>
</svg></g></svg>