<svg preserveAspectRatio="none" overflow="visible" style="display: block;" width="45" height="45" viewBox="0 0 45 45" fill="none" xmlns="http://www.w3.org/2000/svg">
<path id="max" fill-rule="evenodd" clip-rule="evenodd" d="M22.9834 44.8716C18.5673 44.8716 16.515 44.2241 12.9477 41.6341C10.6912 44.5478 3.54586 46.8249 3.23423 42.9291C3.23423 40.0046 2.58953 37.5333 1.85886 34.8354C0.988544 31.5115 0 27.81 0 22.4466C0 9.63692 10.4656 0 22.8653 0C35.2756 0 44.9999 10.1118 44.9999 22.5653C45.0415 34.8262 35.1913 44.8062 22.9834 44.8716ZM23.1661 11.0722C17.1275 10.7593 12.4211 14.9572 11.3789 21.5401C10.5193 26.9899 12.0451 33.6267 13.3452 33.9721C13.9684 34.1231 15.5372 32.8497 16.515 31.8677C18.1318 32.9895 20.0146 33.6632 21.9735 33.821C28.2305 34.1233 33.5769 29.3391 33.997 23.0618C34.2416 16.7711 29.424 11.443 23.1661 11.083V11.0722Z" fill="#BBBBD5"/>
</svg>
